 <svg version="1.0" xmlns="http://www.w3.org/2000/svg" width="650.000000pt" height="650.000000pt" viewBox="0 0 700.000000 700.000000" preserveAspectRatio="xMidYMid meet">
<metadata>
Marcin Dabrowski marcin@dabrowski.space
</metadata>
<g transform="translate(0.000000,650.000000) scale(0.100000,-0.100000)" fill="#FFFFFF" stroke="none">
<path d="M3247 5573 c-2 -5 -7 -20 -11 -35 -7 -31 -40 -38 -76 -16 -15 10 -23
9 -39 -6 -25 -22 -26 -49 -7 -103 22 -61 12 -67 -92 -60 -49 4 -97 9 -106 13
-10 4 -18 0 -22 -12 -3 -11 -9 -28 -13 -39 -22 -57 -28 -86 -24 -109 4 -21 1
-26 -14 -26 -10 0 -24 5 -30 11 -8 8 -24 9 -50 3 -21 -5 -74 -9 -118 -9 l-80
0 1 -30 c2 -44 53 -123 94 -145 19 -10 68 -28 107 -40 40 -12 75 -26 79 -31 3
-5 -2 -21 -11 -35 -10 -16 -15 -41 -13 -72 2 -38 0 -47 -15 -50 -18 -4 -97 26
-174 66 -43 22 -51 13 -88 -106 l-30 -93 -36 6 c-23 4 -51 0 -77 -10 -41 -17
-72 -15 -72 4 0 5 14 25 31 43 27 29 30 38 26 78 -4 34 -13 51 -38 73 -29 27
-36 29 -85 23 -43 -5 -60 -2 -86 14 -37 22 -146 28 -165 9 -7 -7 -9 -31 -6
-64 3 -29 1 -55 -4 -58 -11 -7 -84 19 -162 58 -70 36 -85 28 -89 -46 -4 -65
-32 -100 -108 -134 -28 -13 -57 -34 -66 -47 -17 -26 -38 -105 -38 -142 0 -24
-33 -79 -90 -147 -19 -23 -36 -32 -70 -36 -25 -3 -50 -10 -56 -15 -7 -5 -41
-6 -76 -2 -36 3 -80 2 -102 -5 -37 -10 -41 -8 -74 20 -30 26 -40 30 -85 27
-51 -3 -52 -3 -55 -38 -4 -42 -18 -60 -44 -60 -13 0 -25 -14 -38 -43 -21 -47
-55 -82 -118 -121 -37 -23 -42 -30 -36 -54 8 -34 32 -62 53 -62 20 0 94 -26
132 -45 55 -29 58 -72 7 -104 -23 -15 -48 1 -48 30 0 23 -37 49 -70 49 -14 0
-40 -9 -58 -20 -42 -26 -46 -26 -92 11 -45 36 -61 34 -90 -13 -14 -24 -20 -51
-20 -96 l0 -64 -49 7 c-44 6 -50 4 -65 -16 -19 -28 -20 -91 -3 -206 15 -100
31 -123 87 -123 22 0 40 -4 40 -10 0 -5 -22 -9 -50 -9 -30 1 -59 -5 -73 -14
-27 -18 -61 -84 -71 -139 -7 -39 -25 -56 -100 -93 -46 -24 -76 -59 -76 -90 0
-36 33 -57 105 -64 36 -4 70 -12 77 -19 9 -9 8 -12 -4 -12 -9 0 -20 5 -23 10
-3 6 -22 10 -42 10 -27 0 -46 -9 -80 -40 -25 -22 -50 -40 -55 -40 -24 0 24
-262 54 -296 25 -28 23 -36 -12 -56 -23 -13 -30 -24 -30 -48 0 -37 40 -100 87
-136 30 -23 42 -26 85 -22 71 7 86 1 110 -46 35 -70 45 -77 98 -70 35 5 49 2
59 -10 8 -10 29 -16 51 -16 41 0 65 22 103 90 19 35 26 35 121 14 l29 -7 -6
82 c-5 60 -3 81 6 83 7 1 39 2 72 2 59 1 60 1 71 36 6 19 19 39 28 45 23 14
68 -16 82 -54 5 -17 15 -36 22 -43 17 -17 15 -48 -4 -55 -9 -3 -26 5 -43 21
-53 51 -98 22 -121 -76 -8 -34 -22 -66 -37 -79 -34 -33 -31 -81 8 -130 26 -32
30 -46 25 -71 -10 -53 -32 -68 -94 -68 -54 0 -57 2 -102 50 -33 35 -54 50 -72
50 -39 0 -84 -50 -92 -102 -4 -24 -11 -64 -15 -89 -14 -87 -55 -122 -123 -101
-63 19 -109 24 -124 11 -10 -8 -14 -38 -14 -117 0 -90 3 -109 19 -126 10 -12
36 -53 57 -92 22 -39 55 -91 74 -114 19 -23 37 -45 40 -49 16 -20 92 -72 101
-69 7 2 17 19 23 38 13 41 53 64 140 81 53 11 58 11 81 -11 28 -26 75 -118 75
-147 0 -27 -15 -38 -75 -58 -69 -24 -95 -43 -95 -71 0 -35 63 -64 140 -64 41
0 75 -7 102 -20 57 -27 64 -26 96 20 33 49 45 53 112 40 59 -11 119 0 140 25
7 8 20 30 29 48 22 43 47 41 74 -7 32 -57 48 -64 92 -40 86 45 103 83 64 148
-13 22 -18 43 -14 56 13 42 49 20 113 -73 65 -93 77 -105 103 -89 10 7 33 12
51 12 18 0 42 7 52 15 15 12 40 13 120 9 88 -6 114 -3 201 19 153 39 245 50
296 37 24 -7 88 -13 142 -15 88 -4 104 -7 140 -31 53 -35 118 -102 173 -180
25 -35 49 -64 54 -64 17 0 113 -96 149 -149 58 -85 159 -281 166 -323 7 -37 7
-37 -37 -49 -47 -13 -203 -9 -548 13 -107 7 -240 12 -295 13 l-100 0 0 -30 0
-30 240 -6 c179 -4 253 -10 290 -21 35 -12 102 -18 223 -21 113 -2 177 -8 184
-15 7 -7 39 -12 72 -12 34 0 90 -5 126 -11 36 -7 143 -11 239 -11 126 0 186
-3 216 -14 40 -13 45 -13 87 11 42 24 47 24 156 15 126 -10 750 -15 759 -6 3
3 0 12 -7 21 -26 32 -65 36 -600 65 -96 6 -246 14 -332 19 -155 8 -188 16
-188 46 0 7 -22 59 -49 116 -33 69 -63 117 -90 144 l-41 39 1 91 c1 109 17
204 46 265 12 25 27 63 34 85 32 95 107 163 241 220 58 24 82 28 167 29 120 1
139 -9 188 -101 30 -55 33 -71 38 -167 5 -109 11 -130 51 -179 13 -16 24 -37
24 -47 0 -21 44 -53 67 -48 9 2 26 20 37 41 12 20 36 46 54 57 38 23 40 32 10
57 -45 36 -51 49 -34 76 34 51 97 60 154 22 20 -14 44 -25 52 -25 9 0 26 -9
39 -21 28 -26 15 -44 -43 -60 -69 -18 -88 -35 -81 -72 11 -48 39 -72 125 -107
43 -17 88 -42 101 -56 28 -29 70 -31 124 -5 29 14 46 16 69 10 17 -5 42 -9 55
-9 23 0 123 59 136 80 10 15 61 12 75 -5 7 -8 20 -30 29 -47 20 -40 74 -78
111 -78 51 0 74 65 48 137 -11 31 -10 39 15 83 15 26 27 60 27 75 0 15 9 38
20 52 11 14 20 36 20 49 0 13 7 41 16 63 24 60 16 101 -24 120 -27 13 -32 20
-27 41 3 14 9 41 13 60 7 34 9 35 56 38 51 3 174 -12 185 -24 3 -3 -9 -18 -28
-33 -19 -14 -58 -48 -88 -75 -48 -45 -53 -53 -53 -92 0 -33 5 -46 23 -59 14
-10 22 -26 23 -48 3 -78 27 -186 45 -203 19 -17 22 -17 69 0 29 11 61 15 75
12 23 -6 96 12 132 33 8 4 21 22 31 40 11 22 36 44 72 64 100 54 106 67 65
138 -14 24 -25 56 -25 71 0 21 -10 34 -40 54 -48 32 -56 53 -36 93 24 45 54
61 114 61 94 0 129 47 115 151 l-8 54 -59 3 c-32 2 -64 -2 -69 -7 -18 -18 -49
-13 -92 14 -43 26 -75 31 -106 15 -16 -9 -25 -6 -50 20 -35 35 -55 37 -101 11
-18 -11 -56 -22 -84 -26 -40 -5 -54 -3 -72 12 l-22 18 70 60 c108 94 183 108
216 40 18 -39 60 -60 104 -50 39 9 47 28 26 60 -15 23 -22 65 -10 65 17 0 44
-24 63 -55 17 -29 26 -35 54 -35 28 0 35 5 45 33 6 17 9 48 6 67 -5 31 -2 37
30 58 l35 24 30 -21 c16 -12 32 -21 36 -21 3 0 21 -11 40 -25 33 -26 33 -26
71 -8 48 22 50 25 70 91 19 63 45 84 111 86 44 1 48 3 53 31 4 17 13 40 20 52
11 17 11 29 2 60 -20 63 -67 128 -107 147 -33 16 -36 20 -22 33 8 8 48 30 88
49 68 30 74 36 74 63 1 16 8 38 18 49 25 28 22 74 -8 102 -25 24 -26 24 -71 7
-77 -28 -87 -1 -22 62 24 22 47 41 53 41 5 0 23 11 39 23 24 20 28 28 22 51
-4 15 -18 39 -31 52 -22 22 -30 24 -92 18 -61 -5 -70 -4 -91 16 -16 15 -21 28
-16 43 10 36 35 57 65 57 37 0 59 33 59 90 0 38 -6 54 -33 86 -18 21 -39 57
-46 79 -7 22 -18 46 -23 53 -13 15 -43 16 -68 0 -38 -24 -52 24 -21 72 8 12
13 12 23 2 31 -31 118 9 118 55 0 72 -58 171 -110 188 -26 8 -40 22 -54 51
-19 41 -19 43 19 135 8 20 -42 49 -84 49 -31 1 -120 48 -135 72 -8 13 -5 26
11 55 46 83 38 170 -20 219 -25 21 -38 25 -66 21 -20 -3 -68 -9 -106 -13 l-71
-6 -27 41 c-38 57 -90 81 -174 81 -85 0 -112 -14 -130 -65 -30 -89 -42 -105
-76 -105 -18 0 -59 -13 -92 -30 -57 -28 -95 -37 -108 -24 -11 11 33 123 55
142 7 5 32 15 54 21 53 14 70 32 53 58 -9 16 -7 33 11 91 25 77 21 101 -22
164 -20 28 -17 48 6 48 7 0 24 13 39 28 23 24 27 37 27 84 0 50 -4 60 -31 87
-17 17 -41 31 -54 31 -23 0 -88 -30 -109 -51 -16 -15 -73 -10 -87 7 -11 14
-10 18 6 30 52 35 61 59 51 128 -8 53 -39 96 -68 96 -12 0 -50 -16 -85 -35
-71 -39 -131 -46 -154 -19 -11 14 -10 18 6 30 10 8 35 14 55 14 20 0 44 6 54
13 46 34 -41 94 -176 122 -15 3 -45 -2 -66 -10 -25 -10 -62 -15 -103 -13 -62
3 -64 4 -61 28 2 22 33 95 63 152 14 27 11 58 -7 65 -9 3 -44 1 -78 -5 -157
-29 -151 -30 -207 27 -41 42 -56 51 -85 51 -19 0 -57 11 -86 25 l-51 25 -36
-27 c-20 -14 -47 -37 -61 -49 -24 -22 -30 -23 -90 -14 -36 5 -79 12 -96 16
-37 7 -84 -14 -131 -58 l-31 -30 -30 21 c-33 23 -57 27 -67 11 -13 -21 -49 -8
-95 33 -47 43 -87 60 -165 72 -36 6 -42 4 -63 -24 -21 -29 -27 -31 -86 -31
l-63 0 -67 65 c-45 43 -75 65 -91 65 -13 0 -26 -3 -28 -7z m-81 -424 c8 -13
-115 -134 -147 -144 -31 -10 -80 41 -82 86 -2 31 1 35 40 48 36 13 45 13 68 1
23 -12 29 -12 53 3 31 19 58 22 68 6z m1108 -464 c21 -32 22 -111 1 -119 -48
-18 -85 67 -55 125 14 26 34 24 54 -6z m-1184 -66 c26 -6 41 -4 58 7 31 21 42
10 42 -41 0 -41 3 -47 40 -70 22 -14 40 -29 40 -34 0 -5 -12 -23 -26 -40 -21
-25 -33 -31 -65 -31 -62 0 -125 19 -150 46 -41 44 -99 24 -134 -45 -16 -33
-18 -33 -65 -28 -64 8 -106 30 -125 68 -20 38 -12 65 28 85 31 17 78 16 225
-2 l52 -7 0 50 c0 55 6 67 29 57 9 -3 32 -10 51 -15z m1406 -70 c33 -32 54
-60 54 -74 0 -12 11 -32 25 -45 l25 -24 29 28 c37 36 138 71 157 55 20 -17 17
-26 -10 -33 -13 -3 -46 -25 -72 -49 -59 -52 -166 -129 -171 -123 -3 2 8 22 22
45 28 42 27 61 -5 61 -10 0 -27 15 -39 35 -11 19 -25 35 -31 35 -6 0 -31 10
-56 22 -57 26 -74 57 -50 93 26 40 59 33 122 -26z m-805 -185 c32 -16 59 -66
59 -107 0 -13 -9 -42 -20 -65 -11 -22 -20 -57 -20 -75 0 -20 -8 -45 -20 -58
-20 -24 -20 -24 -35 -5 -12 16 -14 47 -10 170 2 83 4 152 5 154 0 5 12 1 41
-14z m-353 -328 c14 -14 26 -41 31 -74 14 -87 46 -107 129 -78 47 17 52 14 52
-28 0 -61 -21 -69 -146 -52 -57 7 -63 6 -84 -16 -15 -17 -20 -31 -16 -51 8
-38 -9 -67 -38 -67 -36 0 -62 39 -76 112 l-12 66 36 65 c22 39 36 77 36 98 0
62 38 73 88 25z m1864 -41 c-3 -55 -17 -101 -40 -127 -24 -28 -35 -21 -28 16
4 22 1 49 -10 74 -20 51 -16 74 16 83 55 16 65 8 62 -46z m-1198 -96 l21 -21
-55 -46 c-82 -70 -151 -144 -147 -156 2 -6 24 -12 49 -14 59 -4 75 -21 58 -62
-13 -32 -37 -50 -65 -50 -25 0 -75 39 -86 67 -10 26 -25 27 -86 8 -32 -10 -39
25 -15 77 24 51 181 214 214 221 41 9 91 -2 112 -24z m-1212 -160 c11 -6 34
-26 50 -45 17 -19 38 -34 48 -34 24 0 36 -36 19 -57 -10 -11 -26 -14 -63 -10
-40 4 -54 10 -75 36 -14 17 -34 31 -44 31 -25 0 -32 25 -17 60 13 33 44 39 82
19z m113 -215 c28 -21 43 -25 81 -22 29 2 49 -1 51 -8 4 -11 -205 -104 -233
-104 -9 0 -13 13 -13 43 1 23 -1 53 -3 66 -3 24 14 34 80 50 2 1 19 -11 37
-25z m2373 -65 c26 -7 59 -23 74 -37 30 -28 61 -25 109 9 46 33 78 23 52 -17
-14 -22 -14 -26 1 -50 14 -21 15 -31 6 -60 -6 -18 -15 -34 -20 -34 -4 0 -22
25 -39 55 -41 73 -62 71 -111 -10 -13 -22 -28 -43 -34 -47 -17 -12 -36 4 -36
31 0 36 -56 131 -78 131 -31 0 -67 -25 -68 -46 -2 -34 -13 -44 -47 -44 -20 0
-41 -9 -59 -27 l-28 -27 -27 26 c-25 26 -26 28 -13 73 18 64 41 78 91 58 27
-11 43 -12 52 -5 15 12 74 30 105 31 13 1 44 -4 70 -10z m-761 -76 c52 -16 56
-16 89 2 30 16 37 17 44 5 21 -34 -80 -150 -131 -150 -12 0 -31 7 -41 17 -12
11 -47 18 -108 24 -118 9 -141 28 -104 84 18 28 45 32 64 10 17 -21 54 -19 75
5 22 24 42 25 112 3z m-347 -85 c0 -7 -7 -49 -14 -93 -12 -67 -19 -83 -43
-102 -39 -32 -57 -29 -97 15 -28 30 -37 35 -47 25 -7 -7 -26 -13 -41 -13 -23
0 -28 4 -28 25 0 28 17 72 38 98 12 13 31 17 91 17 60 0 81 5 101 20 29 23 40
25 40 8z m-2029 -28 c5 -8 13 -27 18 -42 12 -32 116 -112 137 -104 9 4 14 21
14 55 0 57 14 101 32 101 7 0 26 -14 44 -31 27 -26 35 -29 52 -20 15 8 27 7
51 -5 27 -14 31 -20 31 -58 0 -48 -19 -157 -30 -169 -3 -4 -42 2 -86 13 -49
12 -113 20 -168 20 -89 0 -89 0 -122 36 -39 41 -42 63 -14 89 25 23 25 36 0
84 -10 21 -16 42 -12 45 10 11 44 2 53 -14z m-989 -21 c34 -12 85 -24 113 -28
33 -4 51 -11 53 -21 1 -9 -26 -60 -61 -115 l-64 -100 -5 -107 c-4 -80 -2 -113
8 -133 15 -29 11 -45 -10 -45 -24 0 -58 99 -66 190 -8 92 -25 144 -59 174 -19
17 -24 18 -49 6 -15 -8 -31 -16 -35 -18 -22 -11 9 77 38 108 28 30 31 38 22
57 -7 16 -6 27 3 38 17 20 36 19 112 -6z m1748 -41 c28 -45 23 -72 -14 -76
-33 -4 -46 10 -46 50 0 64 29 77 60 26z m2758 -135 c2 -23 13 -40 35 -57 l32
-25 -1 -92 -1 -93 -52 -29 c-28 -16 -55 -27 -58 -23 -4 3 2 32 11 63 30 95 27
123 -14 149 -59 38 -102 76 -93 85 22 21 101 58 118 56 15 -1 21 -11 23 -34z
m-2718 -11 c0 -10 -9 -35 -20 -57 -24 -48 -25 -63 -3 -87 13 -14 18 -42 21
-109 4 -99 5 -98 -63 -74 -50 18 -79 19 -93 2 -6 -7 -14 -40 -18 -75 -7 -70
-17 -83 -36 -50 -33 61 -59 154 -52 192 6 36 3 42 -22 63 l-29 23 19 35 c21
38 33 44 42 20 6 -15 98 -85 112 -85 5 0 23 22 40 49 24 37 32 60 32 94 0 49
18 77 51 77 12 0 19 -7 19 -18z m530 -140 c0 -48 27 -141 47 -164 12 -13 14
-30 8 -80 -4 -34 -11 -69 -15 -78 -79 -172 -124 -238 -154 -227 -13 5 -16 16
-14 49 3 39 6 43 33 48 26 4 31 11 36 45 9 51 0 105 -17 112 -8 3 -36 -11 -64
-31 l-50 -36 -66 65 c-75 73 -80 97 -26 128 27 16 37 17 64 8 45 -16 163 -14
177 2 8 10 8 27 0 63 -6 27 -13 68 -16 92 -5 41 -5 42 26 42 29 0 31 -2 31
-38z m-1327 -15 c36 -42 34 -58 -13 -96 -30 -24 -44 -30 -57 -23 -20 10 -104
29 -178 40 -55 8 -75 31 -75 89 l0 32 148 -5 147 -6 28 -31z m224 1 c58 -17
80 -28 98 -52 21 -28 45 -93 45 -123 0 -28 -30 -11 -54 31 -49 83 -151 139
-191 106 -17 -14 -45 2 -45 26 0 17 41 46 58 39 7 -3 47 -15 89 -27z m3600 -9
c43 -6 81 -13 85 -15 11 -7 -11 -48 -32 -62 -15 -9 -33 -7 -89 10 -67 21 -83
36 -74 66 6 15 11 15 110 1z m-1078 -25 c12 -11 12 -19 -4 -54 -19 -43 -86
-110 -109 -110 -32 0 -38 27 -15 75 18 38 20 50 10 71 -6 14 -9 29 -6 34 8 13
107 0 124 -16z m-1192 -7 c15 -13 42 -30 58 -38 24 -12 31 -22 36 -56 3 -23
12 -50 21 -60 8 -10 20 -33 26 -51 6 -18 21 -46 33 -63 20 -29 21 -31 3 -50
-19 -21 -213 -143 -273 -173 -63 -30 -64 -23 -17 77 34 73 38 86 77 258 l21
96 -22 31 c-21 28 -21 52 0 52 5 0 21 -11 37 -23z m1365 -59 c13 -18 30 -49
37 -68 18 -46 39 -91 53 -112 10 -14 9 -21 -6 -37 -11 -12 -27 -21 -37 -21
-17 0 -120 -107 -149 -157 -15 -24 -13 -26 38 -74 59 -54 80 -59 122 -29 16
11 31 17 33 13 62 -104 70 -139 34 -149 -26 -6 -194 1 -271 11 -26 4 -91 2
-143 -5 -91 -11 -97 -11 -116 8 l-20 21 27 63 c15 35 38 74 51 88 15 17 27 47
34 93 7 39 23 87 38 110 49 80 100 119 86 67 -5 -17 0 -20 31 -20 37 0 40 -4
36 -47 -3 -44 20 -22 56 52 41 83 37 105 -17 105 -42 0 -36 42 14 98 28 30 40
28 69 -10z m-2102 -142 c0 -12 -40 -46 -55 -46 -10 0 -5 36 7 48 16 16 48 15
48 -2z m-1209 -25 c8 -7 28 -21 46 -31 22 -13 36 -32 44 -61 15 -50 6 -60 -80
-85 -118 -34 -191 29 -175 150 l7 46 72 -3 c40 -2 79 -9 86 -16z m3776 3 c49
-19 55 -40 24 -90 -10 -17 -22 -45 -26 -63 -4 -18 -12 -30 -18 -28 -10 3 -55
76 -83 135 -7 14 32 62 50 62 6 0 30 -7 53 -16z m-1059 -91 c2 -12 -6 -43 -18
-69 -24 -55 -15 -75 21 -50 56 39 83 13 82 -76 -1 -39 -7 -56 -39 -97 -22 -28
-44 -50 -51 -51 -6 0 -20 12 -31 27 l-19 27 -108 -54 c-122 -61 -124 -61 -168
16 -48 82 -74 104 -124 104 -47 0 -121 -30 -148 -60 -17 -19 -16 -20 11 -31
16 -6 65 -16 109 -21 100 -13 109 -19 100 -75 -5 -36 -2 -48 19 -76 52 -68 22
-97 -100 -97 -54 0 -74 6 -140 41 -75 39 -80 40 -153 36 -42 -3 -92 -8 -112
-12 -45 -8 -75 9 -115 66 -25 36 -26 42 -13 65 25 48 110 113 205 159 51 24
121 65 156 90 34 25 66 45 71 45 5 0 29 -18 54 -40 41 -36 49 -39 97 -37 28 1
72 -2 98 -6 62 -11 88 12 88 77 0 66 7 76 49 76 20 0 46 6 57 14 24 17 83 35
104 33 8 -1 16 -12 18 -24z m-2998 -274 c44 -10 80 -33 80 -51 0 -5 -23 -33
-50 -62 -28 -29 -61 -73 -73 -97 -39 -73 -110 -91 -178 -45 -21 15 -54 26 -80
28 -39 3 -44 6 -46 28 -3 29 10 47 52 75 24 15 48 20 117 20 104 0 117 8 100
61 -17 57 -7 63 78 43z m4128 -18 c15 -10 39 -21 55 -25 63 -15 88 -84 46
-122 -17 -15 -35 -19 -87 -17 -54 1 -72 6 -106 30 -59 41 -58 63 4 112 29 23
54 41 57 41 3 0 17 -8 31 -19z m-2876 -30 c4 -4 3 -22 -2 -41 -6 -19 -10 -58
-10 -85 0 -47 4 -56 55 -118 31 -37 59 -67 64 -67 18 0 40 38 47 79 8 47 27
62 51 38 14 -14 15 -23 4 -73 -12 -52 -12 -58 7 -76 19 -20 20 -20 68 6 27 14
56 26 65 26 9 0 24 9 34 20 24 26 65 27 65 1 0 -24 28 -91 38 -91 5 0 23 16
42 35 33 34 60 45 60 25 0 -5 -21 -26 -47 -47 -26 -21 -68 -60 -93 -86 -59
-62 -111 -76 -293 -82 -86 -2 -144 -8 -153 -16 -8 -6 -14 -29 -14 -50 0 -28
-5 -41 -19 -49 -31 -16 -47 -3 -59 51 -16 67 -16 66 18 78 25 8 30 15 30 44 0
25 9 42 35 67 73 71 26 174 -58 128 -12 -6 -41 -15 -64 -18 l-43 -7 0 64 c0
62 1 64 35 85 47 27 42 48 -15 62 -38 9 -46 16 -54 43 -10 37 3 60 37 65 32 5
161 -3 169 -11z m2321 -143 c60 0 67 -2 67 -19 0 -20 -42 -93 -60 -104 -5 -3
-10 -25 -10 -47 0 -47 -22 -78 -55 -78 -31 0 -87 73 -83 108 2 22 -1 28 -20
30 -31 5 -67 -20 -97 -68 -32 -51 -31 -60 5 -95 34 -33 36 -44 15 -85 -22 -43
-57 -48 -104 -16 -45 32 -101 106 -101 135 0 40 -23 35 -68 -15 -24 -27 -55
-66 -69 -87 -25 -39 -83 -73 -109 -63 -21 8 -17 45 12 93 l26 45 -23 24 c-12
13 -30 26 -40 29 -20 7 -15 35 6 35 6 0 20 9 31 21 10 11 43 32 73 46 30 13
76 42 102 64 52 44 81 48 149 24 58 -21 96 -18 155 10 38 18 60 23 90 18 22
-3 70 -5 108 -5z m-3276 -50 c15 -7 49 -27 74 -45 26 -18 53 -33 60 -33 8 0
25 -10 39 -21 64 -52 101 -70 116 -58 8 6 14 24 14 39 0 25 3 28 53 34 142 17
243 1 266 -42 15 -29 16 -29 -31 -50 -42 -18 -43 -20 -56 -86 -7 -37 -19 -81
-27 -96 -8 -16 -15 -36 -15 -44 0 -19 48 -76 64 -76 7 0 31 -16 54 -36 l42
-35 30 21 c48 34 63 24 77 -50 8 -45 9 -75 2 -97 -9 -28 -16 -33 -60 -42 -28
-6 -61 -11 -73 -11 -21 0 -130 -21 -261 -51 -124 -28 -162 -32 -191 -17 -26
12 -29 18 -26 57 2 27 -3 53 -13 67 -8 13 -15 44 -15 70 0 38 4 47 20 51 34 9
56 84 74 259 4 41 3 42 -57 84 l-62 42 -47 -17 c-55 -20 -83 -10 -91 32 -3 16
-11 47 -18 70 -10 32 -10 48 -1 67 13 29 20 31 59 14z m2026 -180 c29 -12 77
-36 107 -53 35 -20 84 -36 132 -44 76 -14 98 -11 98 13 0 26 76 81 140 101 21
7 23 6 13 -6 -6 -8 -17 -35 -23 -61 -13 -52 -21 -61 -65 -75 -17 -5 -45 -30
-66 -57 -52 -69 -304 -218 -343 -203 -8 3 -18 23 -22 44 -9 48 -70 226 -95
275 -21 42 -18 61 14 76 33 16 53 14 110 -10z m-291 -130 c20 -31 65 -174 71
-225 7 -56 -7 -111 -48 -203 -23 -51 -39 -109 -50 -180 -9 -58 -21 -132 -26
-165 -5 -33 -12 -78 -15 -100 -13 -99 -26 -108 -66 -47 -14 20 -49 64 -78 96
-39 45 -50 64 -45 80 3 12 10 51 14 88 5 41 17 78 30 97 15 21 20 38 15 56 -5
21 2 34 44 79 36 38 52 64 57 92 4 22 10 53 15 70 13 52 -48 124 -105 124 -36
0 22 93 84 136 45 31 84 31 103 2z m1894 -63 c9 -22 -40 -119 -86 -168 -33
-36 -40 -50 -35 -70 4 -14 1 -35 -5 -47 -10 -18 -17 -21 -45 -16 -28 6 -38 2
-65 -24 -23 -22 -40 -30 -67 -30 -65 0 -86 -37 -61 -107 6 -18 9 -35 6 -38 -3
-3 -36 -1 -74 5 -38 6 -97 15 -130 20 -34 5 -73 14 -87 19 l-26 10 22 39 c19
37 20 43 7 82 -9 28 -25 50 -47 64 -20 13 -33 29 -33 42 0 32 27 79 66 113 28
25 43 31 82 31 71 0 79 -9 64 -68 -21 -81 6 -132 70 -132 20 0 33 10 55 42 43
64 51 66 127 34 36 -16 73 -26 81 -22 29 11 57 96 52 153 l-6 53 42 10 c23 6
47 13 52 15 21 8 36 4 41 -10z m-2568 -221 c23 -27 28 -66 12 -108 -18 -50
-60 -27 -109 59 l-23 39 27 24 c32 27 59 23 93 -14z m273 -144 c46 -25 10 -76
-47 -67 -43 7 -64 23 -64 47 0 28 72 40 111 20z"></path>
<path d="M4868 2379 c-25 -14 -80 -97 -73 -109 3 -5 31 -8 62 -6 63 3 71 12
72 77 1 46 -23 61 -61 38z"></path>
</g>
</svg>